<?xml version="1.0" encoding="UTF-8"?>
<!-- MacroBrief favicon. Dark-ground colours on a transparent square, centred
     on the mark's real bounding box; never stretched — the mark is wider than
     tall, so a square canvas letterboxes. Generated by brandbook/build.py. -->
<svg xmlns="http://www.w3.org/2000/svg" viewBox="0 0 1000 1000" role="img" aria-label="MacroBrief">
  <title>MacroBrief</title>
  <mask id="mbgrat9"><rect width="1000" height="698.86" fill="#fff"/><ellipse cx="500" cy="196" rx="150" ry="57.0" fill="none" stroke="#000" stroke-width="18"/><ellipse cx="500" cy="196" rx="57.0" ry="150" fill="none" stroke="#000" stroke-width="18"/><line x1="350" y1="196" x2="650" y2="196" stroke="#000" stroke-width="18"/></mask>
  <g transform="translate(0,127.57)">
    <path fill="#d946ef" d="M1000,281.63v340c0,10.67-6.26,20.42-16.01,25.04l-107.66,49.57c-18.47,8.52-39.61-4.82-39.61-25.04v-168.72l-302.13,139.16c-21.96,10.16-47.21,10.16-68.97,0l-302.13-139.16v168.72c0,20.22-21.24,33.56-39.72,25.04l-107.66-49.57c-9.85-4.62-16.11-14.37-16.11-25.04v-340c0-18.68,18.37-31.51,35.71-26.48,1.33.41,2.67.92,3.9,1.44l429.49,197.97c19.6,9.03,42.28,9.03,61.78,0l429.49-197.97c1.03-.41,2.26-.92,3.39-1.33,17.65-5.44,36.23,7.49,36.23,26.38Z"/>
    <circle cx="500" cy="196" r="150" fill="#ffffff" mask="url(#mbgrat9)"/><circle cx="608" cy="88" r="42" fill="#d946ef"/>
  </g>
</svg>
